<svg version="1.1" xmlns="http://www.w3.org/2000/svg" xmlns:xlink="http://www.w3.org/1999/xlink" preserveAspectRatio="xMidYMid meet" viewBox="631 326 107 126"><g data-item-type="text" data-item="Business" id="logo__item--business" class="logo__item">
                <g class="logo__item__inner" transform="translate(685.5234375 365.9652039327045) scale(-0.11482976461324415 -0.11482976461324415) rotate(26.58035400350386 127.4765625 19.5)">
                    <text data-part-id="logo__item--business" dy="0" dominant-baseline="auto" alignment-baseline="auto" font-family="Montserrat" font-size="32px" fill="#1e2023" letter-spacing="0" font-weight="normal" font-style="normal" data-font-family="Montserrat" data-font-weight="normal" data-font-style="normal" data-ttf-url="/builder_assets/fontsttf/font-montserrat-bold-normal.ttf" data-font-filename="montserrat-normal-normal">B</text>
                </g>
            </g><g data-item-type="image" data-item="Image" data-logo-item="" id="logo__item--logo_0" class="logo__item">
    <g class="logo__item__inner" transform="translate(608.3992757173144 310.5) scale(1.5404561907502348 1.5404561907502348) rotate(0 0 0)">
        
<g>
	<path fill="#1e2023" d="M29.128,72.73V23.368h27.481c0,0,11.779-1.682,14.023,10.098c0,0,1.123,8.973-5.047,13.462L29.128,72.73z" data-part-id="logo__item--logo_0__0"></path>
	<path fill="#31353a" d="M29.688,80.583v-4.487l32.533-23.559c0,0,5.053-3.367,8.975,10.657c0,0,4.488,16.829-12.342,17.389H29.688z   " data-part-id="logo__item--logo_0__1"></path>
	<g>
		<path fill="#1e2023" d="M16.769,90.535V12.636h65.914V88.29v2.245H16.769L16.769,90.535z M80.431,88.29v-2.252V88.29L80.431,88.29    z M21.266,86.038h56.92l-0.005-68.903H21.266V86.038L21.266,86.038z" data-part-id="logo__item--logo_0__2"></path>
	</g>
</g>

    </g>
</g></svg>